<svg id="Capa_1" data-name="Capa 1" xmlns="http://www.w3.org/2000/svg" viewBox="0 0 171.81 231.5"><defs><style>.cls-1{fill:none;stroke-width:5px;}.cls-1,.cls-2,.cls-3,.cls-4{stroke:#421a06;stroke-miterlimit:10;}.cls-2,.cls-3,.cls-4{fill:#c97979;}.cls-2{stroke-width:4px;}.cls-4{stroke-width:3px;}</style></defs><path class="cls-1" d="M135.43,160.19s-6.85,15.14-17.13,6c-17.39-15.49,2.74-24.64,2.74-24.64s65.42-17.28,65.1-39.43c-.26-17.2-17.12-23.59-26.71-20.77S143,91.9,144,101.06c.83,7.42,16.25,37.33,17.47,40.48.66,1.72,1.36,3.78,2.09,6.12s1.52,5.14,2.27,8c5.64,22,10.34,55.64-.25,65.4,0,0-24.66,5.29-36.68-12,0,0,3.74-3.75,16.75-6.57,0,0,22.68-35.9,17.88-54.91" transform="translate(-52.39 -78.2)"/><path class="cls-1" d="M128.91,209.13s-19.53-20.42-36-15.49c0,0-5.14,23.59,11.3,28.17,0,0,17.68-11.43,30-6.83" transform="translate(-52.39 -78.2)"/><path class="cls-1" d="M159.81,222c14.39,34.85,39.33,24.47,39.33,24.47,25.92-15.61,11-47.88,11-47.88-11-1.76-44,22-44,22s-1.79-10.9-10.95-16.16c-3.19-1.84-9.44-1.84-9.44-1.84" transform="translate(-52.39 -78.2)"/><path class="cls-2" d="M158.16,263.55A39.88,39.88,0,0,0,162,266a41.62,41.62,0,0,0,4.07,2c.69.31,1.39.57,2.09.85s1.41.52,2.12.77l1,.39,1.07.33c.72.23,1.45.4,2.17.57a33.72,33.72,0,0,0,17.69-.38,40.48,40.48,0,0,0,15.49-9c.59-.48,1.11-1,1.66-1.56s1.12-1.06,1.61-1.6a31.15,31.15,0,0,0,2.78-3.58,21.26,21.26,0,0,0,3.49-8.28l.73.63a54.3,54.3,0,0,1-6.53,1.66,65.12,65.12,0,0,1-6.67.89,41.75,41.75,0,0,1-6.71-.21,37.48,37.48,0,0,1-6.56-1.28l1.67.26c.27,0,.55.1.82.13l.83.07c.55.06,1.11.12,1.66.15l1.67.06a53.75,53.75,0,0,0,6.59-.31,55.2,55.2,0,0,0,6.54-.86,56.35,56.35,0,0,0,6.39-1.61l.87-.29,1.63-1.46c-.52,3.21-3.73,8.51-5.46,11.12a31.63,31.63,0,0,1-2.89,3.72c-.55.57-1.11,1.1-1.67,1.65s-1.11,1.1-1.69,1.59a41.8,41.8,0,0,1-15.91,9.25,34.88,34.88,0,0,1-18.25.39c-1.5-.37-3-.8-4.45-1.32a30,30,0,0,1-4.19-1.95,41.83,41.83,0,0,1-3.94-2.4A35.55,35.55,0,0,1,158.16,263.55Z" transform="translate(-52.39 -78.2)"/><path class="cls-2" d="M113.51,247.81a35.87,35.87,0,0,0,0,3.88c0,1.29.12,2.58.24,3.86s.28,2.56.51,3.82c.09.63.22,1.26.35,1.89s.24,1.25.38,1.88a39.43,39.43,0,0,0,2.22,7.3l.76,1.75c.28.57.59,1.14.88,1.67l.45.84c.16.27.34.54.51.8l1,1.58,0-.06a46.66,46.66,0,0,1,3,3.61,39.44,39.44,0,0,1,2.6,3.9,23.43,23.43,0,0,1,2,4.31,9.68,9.68,0,0,1,.45,4.89l-.81-.62c2.22-1.3,4.38-2.78,6.49-4.31s4.15-3.15,6.11-4.86a79.86,79.86,0,0,0,10.85-11.28,59.72,59.72,0,0,0,4.41-6.49,49.48,49.48,0,0,0,3.39-7.08c.38-1.25.92-2.46,1.27-3.73s.67-2.54,1-3.82a41.84,41.84,0,0,0,.64-7.9,34.74,34.74,0,0,1-.75,12,26,26,0,0,1-1.11,3.88,50.83,50.83,0,0,1-3.48,7.25,59.26,59.26,0,0,1-4.51,6.54,81.48,81.48,0,0,1-11,11.43q-3,2.58-6.2,4.92c-2.13,1.54-4.29,3-6.59,4.37l-1.08.64.27-1.26a8.53,8.53,0,0,0-.42-4.28,21.81,21.81,0,0,0-1.9-4.1,40.19,40.19,0,0,0-2.52-3.79c-.91-1.21-1.88-2.41-2.89-3.51l0,0h0l-1.08-1.65c-.17-.27-.36-.54-.55-.82l-.46-.87c-.3-.57-.63-1.14-.91-1.74l-.79-1.8a44.14,44.14,0,0,1-2.25-7.48,15.88,15.88,0,0,1-.33-1.93c-.09-.66-.17-1.3-.22-2-.13-1.3-.19-2.6-.23-3.91A45.77,45.77,0,0,1,113.51,247.81Z" transform="translate(-52.39 -78.2)"/><path class="cls-2" d="M104.26,221.8c-2.91,2-5.92,3.92-9,5.75-1.53.9-3,1.82-4.62,2.65s-3.18,1.57-4.79,2.32A74.38,74.38,0,0,1,76,236.37a28.05,28.05,0,0,1-5.28,1,12.65,12.65,0,0,1-2.75-.06,6.13,6.13,0,0,1-2.69-1l.75-.81a38.94,38.94,0,0,0,7,6.6,41.08,41.08,0,0,0,8.38,4.75,37.18,37.18,0,0,0,9.22,2.56,39.72,39.72,0,0,0,9.56.16,44.39,44.39,0,0,0,9.38-2.05l2.27-.79c.76-.28,1.49-.63,2.23-.93,1.5-.57,2.92-1.36,4.37-2.08s2.77-1.65,4.22-2.39,2.78-1.68,4.15-2.54,2.69-1.84,4-2.78l3.89-3L131,236.37c-1.26,1-2.56,2-3.84,3.08s-2.66,1.92-4,2.86c-.69.44-1.4.85-2.12,1.25s-1.41.85-2.16,1.2c-1.47.73-2.91,1.52-4.44,2.12-.76.31-1.5.66-2.28.94l-2.32.81a45.74,45.74,0,0,1-9.6,2.11,40.34,40.34,0,0,1-9.82-.17A38.24,38.24,0,0,1,81,247.94a42,42,0,0,1-8.57-4.87,39.69,39.69,0,0,1-7.28-6.85l-2.45-3,3.22,2.22a5.1,5.1,0,0,0,2.22.81,11,11,0,0,0,2.5,0,26.63,26.63,0,0,0,5.07-1,72.14,72.14,0,0,0,9.78-3.79c1.59-.74,3.18-1.51,4.73-2.33s3.18-1.52,4.75-2.33Q99.64,224.43,104.26,221.8Z" transform="translate(-52.39 -78.2)"/><path class="cls-3" d="M155.81,129.07c2.31-1.66,4.6-3.32,6.83-5a81.44,81.44,0,0,0,6.73-5.1,50.73,50.73,0,0,0,6-5.91,30.69,30.69,0,0,0,2.51-3.37,21.06,21.06,0,0,0,2-3.7,14.07,14.07,0,0,0,.92-8.13A15.77,15.77,0,0,0,177,90.56a29.93,29.93,0,0,0-6.4-5.38,46.32,46.32,0,0,0-7.22-4.33,34.4,34.4,0,0,1,4,1.46c1.3.58,2.59,1.2,3.84,1.9a30.89,30.89,0,0,1,6.62,5.56,16.87,16.87,0,0,1,4,7.81,15.29,15.29,0,0,1-1,8.79,22.64,22.64,0,0,1-2,3.9,30.39,30.39,0,0,1-2.6,3.49,52,52,0,0,1-6.11,6,85.23,85.23,0,0,1-6.8,5.18C160.83,126.45,158.36,127.82,155.81,129.07Z" transform="translate(-52.39 -78.2)"/><path class="cls-1" d="M148.1,88.28s-11.67,8.53,3.42,40.92c0,0,11.67,29,11.32,36.05" transform="translate(-52.39 -78.2)"/><path class="cls-1" d="M144.43,219.92s21.46-30.84,18.41-54.67" transform="translate(-52.39 -78.2)"/><path class="cls-2" d="M72.74,242.93c1.37,1.14,2.73,2.24,4.11,3.27,1.3,1.22,2.64,2.36,4,3.43a48.85,48.85,0,0,0,8.45,5.44,27.87,27.87,0,0,0,4.45,1.77,20.15,20.15,0,0,0,4.54.88,15.73,15.73,0,0,0,4.54-.3,17,17,0,0,0,4.55-1.11,15.83,15.83,0,0,1-4.41,2.51,16.33,16.33,0,0,1-4.73.31,20.71,20.71,0,0,1-4.68-.9A29.62,29.62,0,0,1,89,256.42a49.37,49.37,0,0,1-8.6-5.53c-1.37-1.09-2.72-2.26-4.06-3.47A53.82,53.82,0,0,1,72.74,242.93Z" transform="translate(-52.39 -78.2)"/><path class="cls-4" d="M209.93,198.3a81.35,81.35,0,0,1-2,8.61c-1,2.78-2,5.53-3.23,8.22a61,61,0,0,1-9.13,15,27.16,27.16,0,0,1-6.67,5.71l-1,.57-1,.47a16.29,16.29,0,0,1-2.07.79,8.06,8.06,0,0,1-1.07.29l-1.08.24-2.16.31a22.07,22.07,0,0,1-8.71-.57,13.22,13.22,0,0,1-3.86-2.2l-.42-.36-.39-.4c-.27-.26-.49-.57-.73-.84a7.77,7.77,0,0,1-1.06-1.94,8.79,8.79,0,0,0,2.94,3.06,12.49,12.49,0,0,0,3.83,1.59,21.26,21.26,0,0,0,8.29.57l2.08-.29,1-.23a9.27,9.27,0,0,0,1-.27,16.89,16.89,0,0,0,1.94-.75l1-.44.91-.53a25.69,25.69,0,0,0,6.4-5.51,59.94,59.94,0,0,0,8.95-14.75c1.18-2.67,2.24-5.37,3.19-8.12S209,201.09,209.93,198.3Z" transform="translate(-52.39 -78.2)"/><path class="cls-4" d="M215.07,250.64c-1.26,1.67-2.55-.78-4,.71s-3.19,2.65-4.87,3.87a50,50,0,0,1-10.81,6.06,29.8,29.8,0,0,1-6,1.68,21.4,21.4,0,0,1-6.24.19,19.53,19.53,0,0,1-6-1.77l-1.32-.88a14.68,14.68,0,0,1-1.23-1,20.87,20.87,0,0,1-2.23-2.18,23.2,23.2,0,0,0,5.28,3A18.45,18.45,0,0,0,183.3,262a20,20,0,0,0,5.93-.18,28.94,28.94,0,0,0,5.75-1.62,49.21,49.21,0,0,0,10.56-5.93c1.67-1.2,3.25-2.46,4.79-3.81S213.49,252,215.07,250.64Z" transform="translate(-52.39 -78.2)"/><path class="cls-2" d="M195.12,275a18.88,18.88,0,0,1-3.89,2.69c-.74.27-1.47.57-2.22.77l-1.11.33c-.38.1-.77.17-1.16.26a32.25,32.25,0,0,1-9.4.6,38.54,38.54,0,0,1-4.63-.77l-1.14-.27a8.28,8.28,0,0,1-1.11-.31l-2.23-.75c-.36-.13-.75-.23-1.11-.39l-1.07-.48-2.15-.94c-1.32-.87-2.6-1.81-3.84-2.75,1.47.55,2.88,1.17,4.32,1.72l2.09.92,1.05.46c.35.16.72.26,1.08.39l2.17.72a7,7,0,0,0,1.11.3l1.11.26a37.89,37.89,0,0,0,4.49.75,31.44,31.44,0,0,0,9-.58c.37-.08.74-.14,1.11-.25l1.11-.32a22.57,22.57,0,0,0,2.14-.75A26.07,26.07,0,0,0,195.12,275Z" transform="translate(-52.39 -78.2)"/><path class="cls-2" d="M128.23,293.62c1.08-2,2.15-4,3.18-6,1.19-1.92,2.32-3.87,3.42-5.84,2.2-3.94,4.27-8,6.08-12.09q1.36-3.09,2.51-6.29a60.07,60.07,0,0,0,2-6.46,39.21,39.21,0,0,0,1-6.64,20,20,0,0,0-.18-6.73,18.56,18.56,0,0,1,1.28,6.79,39.64,39.64,0,0,1-1.06,6.86,62.29,62.29,0,0,1-2,6.58c-.77,2.15-1.62,4.28-2.55,6.36-1.83,4.17-3.92,8.22-6.11,12.19q-1.67,3-3.44,5.88C131,290.06,129.69,291.89,128.23,293.62Z" transform="translate(-52.39 -78.2)"/><path class="cls-4" d="M94.07,196.5A29.12,29.12,0,0,0,96,199.67a25.86,25.86,0,0,0,1.85,3.12,25,25,0,0,0,4.87,5.28,14.38,14.38,0,0,0,1.43,1.07,14.94,14.94,0,0,0,1.5,1l1.56.88c.55.27,1.08.49,1.62.74l.82.36a8.51,8.51,0,0,0,.85.29l1.7.58.41.2.42.16.85.32c.56.21,1.14.44,1.71.68-.61,0-1.22-.05-1.84-.09l-.93-.06-.46,0-.46-.08-1.76-.57c-.29-.11-.59-.18-.87-.31l-.85-.38c-.56-.26-1.14-.49-1.7-.76l-1.62-1a12.3,12.3,0,0,1-1.56-1,14.92,14.92,0,0,1-1.5-1.15,25.6,25.6,0,0,1-5.08-5.51c-.38-.51-.68-1.07-1-1.59a17.93,17.93,0,0,1-.92-1.66A15.74,15.74,0,0,1,94.07,196.5Z" transform="translate(-52.39 -78.2)"/><path class="cls-2" d="M65.55,235.89c2.19.72,4.39,1.34,6.6,1.89q3.24,1.08,6.56,1.86a61.64,61.64,0,0,0,13.45,1.78,38.56,38.56,0,0,0,13.3-2,30.09,30.09,0,0,0,6-3,31.6,31.6,0,0,0,5.53-4,28.46,28.46,0,0,1-4.93,5,31.16,31.16,0,0,1-6.28,3.12,39.52,39.52,0,0,1-13.68,2.05,63.88,63.88,0,0,1-13.69-1.77c-2.22-.53-4.44-1.15-6.67-1.88A55,55,0,0,1,65.55,235.89Z" transform="translate(-52.39 -78.2)"/></svg>