<svg id="Capa_1" data-name="Capa 1" xmlns="http://www.w3.org/2000/svg" viewBox="0 0 84.23 110.78"><defs><style>.cls-1{fill:none;}.cls-1,.cls-2{stroke:#f7e9ce;stroke-miterlimit:10;stroke-width:0.75px;}.cls-2{fill:#c9797a;}.cls-3{fill:#f7e9ce;}</style></defs><path class="cls-1" d="M71.88,61.12s-3.56,7.64-8.89,3c-9-7.82,1.43-12.43,1.43-12.43S98.35,43,98.18,31.81C98,23.13,89.3,19.91,84.32,21.33s-8.52,5.33-8,10c.43,3.75,8.43,18.84,9.06,20.43.34.86.71,1.91,1.08,3.09s.79,2.59,1.18,4.05c2.93,11.08,5.36,28.08-.13,33,0,0-12.79,2.66-19-6,0,0,1.93-1.9,8.68-3.32,0,0,11.77-18.12,9.28-27.71" transform="translate(-32.18 -20.63)"/><path class="cls-1" d="M68.49,85.82S58.37,75.51,49.84,78c0,0-2.67,11.9,5.86,14.21,0,0,9.17-5.76,15.57-3.44" transform="translate(-32.18 -20.63)"/><path class="cls-1" d="M84.52,92.3c7.47,17.58,20.4,12.35,20.4,12.35,13.45-7.88,5.69-24.16,5.69-24.16-5.69-.89-22.84,11.1-22.84,11.1s-.93-5.5-5.68-8.16c-1.65-.93-4.9-.93-4.9-.93" transform="translate(-32.18 -20.63)"/><path class="cls-2" d="M83.67,113.28a19.5,19.5,0,0,0,2,1.23,21.53,21.53,0,0,0,2.11,1c.36.16.72.29,1.09.43s.73.26,1.09.39l.55.2.56.16c.37.12.75.2,1.12.29a18,18,0,0,0,9.18-.19,21.25,21.25,0,0,0,8-4.54c.3-.25.57-.53.86-.79s.58-.54.84-.81a16.81,16.81,0,0,0,1.44-1.81,10.49,10.49,0,0,0,1.81-4.18l.38.32a28.44,28.44,0,0,1-3.39.84,33.76,33.76,0,0,1-3.46.45,22.45,22.45,0,0,1-3.48-.11,19.6,19.6,0,0,1-3.4-.64l.86.13.43.06.43,0,.86.08.87,0a41.57,41.57,0,0,0,6.81-.6,27.07,27.07,0,0,0,3.31-.81l.45-.14.85-.74c-.27,1.62-1.94,4.29-2.83,5.61a18.18,18.18,0,0,1-1.5,1.88c-.29.29-.58.55-.87.83s-.57.56-.88.81a21.88,21.88,0,0,1-8.25,4.66,18.61,18.61,0,0,1-9.46.2c-.78-.19-1.55-.41-2.31-.67a15.15,15.15,0,0,1-2.17-1,22.06,22.06,0,0,1-2-1.21A17.64,17.64,0,0,1,83.67,113.28Z" transform="translate(-32.18 -20.63)"/><path class="cls-2" d="M60.51,105.33a16,16,0,0,0,0,2c0,.65.06,1.3.12,1.95s.15,1.29.27,1.93c.05.32.11.63.18,1s.12.64.2.95a19.24,19.24,0,0,0,1.15,3.69l.39.88.46.84.23.43c.08.13.18.26.27.4l.53.8,0,0a22.42,22.42,0,0,1,1.54,1.82,20.05,20.05,0,0,1,1.35,2,11.13,11.13,0,0,1,1,2.18,4.73,4.73,0,0,1,.24,2.47l-.42-.32c1.15-.65,2.27-1.4,3.36-2.17s2.16-1.59,3.17-2.45a40.44,40.44,0,0,0,5.63-5.7,28.6,28.6,0,0,0,2.29-3.27A25.16,25.16,0,0,0,84.24,111c.2-.64.48-1.24.66-1.88s.35-1.29.51-1.93a20.54,20.54,0,0,0,.33-4,18.91,18.91,0,0,1,0,4,19.41,19.41,0,0,1-.37,2,12.24,12.24,0,0,1-.58,2,24.84,24.84,0,0,1-1.8,3.66,31.74,31.74,0,0,1-2.34,3.3A41.52,41.52,0,0,1,74.92,124c-1,.87-2.11,1.69-3.21,2.48s-2.23,1.52-3.42,2.21l-.56.32.14-.64a4.18,4.18,0,0,0-.22-2.16,10.87,10.87,0,0,0-1-2.07,20.81,20.81,0,0,0-1.31-1.91c-.47-.61-1-1.21-1.5-1.77l0,0h0l-.55-.83-.29-.41-.24-.44c-.16-.29-.33-.58-.47-.88l-.41-.91a22.54,22.54,0,0,1-1.17-3.77,6.48,6.48,0,0,1-.17-1c0-.33-.09-.65-.11-1-.07-.66-.1-1.32-.12-2A22.35,22.35,0,0,1,60.51,105.33Z" transform="translate(-32.18 -20.63)"/><path class="cls-2" d="M55.71,92.21c-1.51,1-3.07,2-4.65,2.9-.79.46-1.57.92-2.39,1.34s-1.65.79-2.49,1.17A37.55,37.55,0,0,1,41,99.56a15,15,0,0,1-2.73.53,6.83,6.83,0,0,1-1.43,0,3.21,3.21,0,0,1-1.4-.51l.39-.41a19.88,19.88,0,0,0,3.65,3.33,21.46,21.46,0,0,0,4.35,2.4,19.33,19.33,0,0,0,4.78,1.29,20.58,20.58,0,0,0,5,.08,23.76,23.76,0,0,0,4.86-1l1.19-.4c.39-.14.77-.32,1.15-.47.78-.29,1.51-.69,2.26-1s1.45-.83,2.19-1.2,1.45-.85,2.16-1.29,1.39-.92,2.08-1.4l2-1.5L69.6,99.56c-.65.53-1.32,1-2,1.56s-1.38,1-2.08,1.44c-.36.22-.73.43-1.1.63a12,12,0,0,1-1.12.6c-.76.37-1.51.77-2.3,1.07-.4.16-.78.34-1.18.48l-1.21.41a24.14,24.14,0,0,1-5,1.06,21.15,21.15,0,0,1-5.09-.08,20.35,20.35,0,0,1-4.92-1.33,21.46,21.46,0,0,1-4.45-2.46,20.27,20.27,0,0,1-3.77-3.45L34.13,98l1.67,1.12a2.53,2.53,0,0,0,1.16.41,5.64,5.64,0,0,0,1.3,0A14.79,14.79,0,0,0,40.88,99,37.75,37.75,0,0,0,46,97.08q1.24-.56,2.46-1.17c.81-.41,1.65-.77,2.46-1.18Q53.32,93.54,55.71,92.21Z" transform="translate(-32.18 -20.63)"/><path class="cls-3" d="M82.45,45.42c1.2-.84,2.39-1.68,3.54-2.55a42.37,42.37,0,0,0,3.49-2.57,25.86,25.86,0,0,0,3.11-3,14.49,14.49,0,0,0,1.31-1.7,11.6,11.6,0,0,0,1-1.87,6.94,6.94,0,0,0,.48-4.1,8,8,0,0,0-2-3.66,15.5,15.5,0,0,0-3.32-2.71,24.55,24.55,0,0,0-3.74-2.19,18.71,18.71,0,0,1,2.06.74,21.4,21.4,0,0,1,2,1,15.69,15.69,0,0,1,3.43,2.8,8.57,8.57,0,0,1,2.1,4A7.57,7.57,0,0,1,95.44,34a12,12,0,0,1-1.06,2A16.42,16.42,0,0,1,93,37.69a27.68,27.68,0,0,1-3.17,3.05c-1.14.93-2.31,1.79-3.53,2.61S83.77,44.79,82.45,45.42Z" transform="translate(-32.18 -20.63)"/><path class="cls-1" d="M78.45,24.83s-6,4.31,1.78,20.65c0,0,6,14.64,5.86,18.19" transform="translate(-32.18 -20.63)"/><path class="cls-1" d="M76.55,91.26S87.68,75.7,86.1,63.67" transform="translate(-32.18 -20.63)"/><path class="cls-2" d="M39.36,102.87q1.06.87,2.13,1.65c.68.62,1.37,1.19,2.08,1.73A25.17,25.17,0,0,0,48,109a15.08,15.08,0,0,0,2.31.89,10.49,10.49,0,0,0,2.35.45,8.12,8.12,0,0,0,2.36-.16,8.38,8.38,0,0,0,2.36-.56A8.28,8.28,0,0,1,55,110.89a8.75,8.75,0,0,1-2.45.16,11.21,11.21,0,0,1-2.43-.46,15.22,15.22,0,0,1-2.35-.91,25.08,25.08,0,0,1-4.46-2.79c-.72-.55-1.42-1.14-2.11-1.75A27.27,27.27,0,0,1,39.36,102.87Z" transform="translate(-32.18 -20.63)"/><path class="cls-2" d="M110.52,80.35a38.17,38.17,0,0,1-1,4.35c-.5,1.4-1,2.79-1.67,4.14a30.5,30.5,0,0,1-4.74,7.59,14.13,14.13,0,0,1-3.46,2.89l-.49.28-.53.24a7.6,7.6,0,0,1-1.07.4,3.7,3.7,0,0,1-.55.14l-.56.13-1.12.15a11.67,11.67,0,0,1-4.52-.29,6.65,6.65,0,0,1-2-1.11l-.22-.18-.2-.2c-.14-.13-.26-.29-.38-.42a4.11,4.11,0,0,1-.55-1A4.48,4.48,0,0,0,89,99a6.35,6.35,0,0,0,2,.8,11.13,11.13,0,0,0,4.3.29l1.08-.15.53-.11a4.84,4.84,0,0,0,.51-.14,8.06,8.06,0,0,0,1-.37l.5-.23.47-.26a13.43,13.43,0,0,0,3.32-2.78,30.14,30.14,0,0,0,4.64-7.45c.61-1.34,1.16-2.71,1.65-4.1S110,81.76,110.52,80.35Z" transform="translate(-32.18 -20.63)"/><path class="cls-2" d="M113.19,106.76c-.66.84-1.32-.39-2.08.36s-1.66,1.34-2.53,1.95a25.67,25.67,0,0,1-5.61,3.06,15.81,15.81,0,0,1-3.1.85,11.35,11.35,0,0,1-3.24.1,10.64,10.64,0,0,1-3.12-.9l-.68-.44a7.73,7.73,0,0,1-.64-.49A11,11,0,0,1,91,110.14a12.67,12.67,0,0,0,2.74,1.52,9.71,9.71,0,0,0,2.94.84,10.53,10.53,0,0,0,3.07-.09,15.59,15.59,0,0,0,3-.82,25.26,25.26,0,0,0,5.47-3,31.08,31.08,0,0,0,2.49-1.92C111.59,106.07,112.36,107.43,113.19,106.76Z" transform="translate(-32.18 -20.63)"/><path class="cls-2" d="M102.84,119.05a9.76,9.76,0,0,1-2,1.35,12,12,0,0,1-1.15.39l-.58.17-.6.13a17.3,17.3,0,0,1-4.87.3,19.36,19.36,0,0,1-2.4-.39l-.6-.13a3.7,3.7,0,0,1-.57-.16l-1.16-.38a3.85,3.85,0,0,1-.57-.2l-.56-.23-1.12-.48c-.68-.44-1.34-.91-2-1.39.77.28,1.5.59,2.24.87l1.09.46.54.24c.18.08.38.13.56.19l1.13.37.57.15.58.13a18.23,18.23,0,0,0,2.33.37,16.72,16.72,0,0,0,4.68-.28l.57-.13.58-.16c.38-.1.74-.25,1.11-.38A14.24,14.24,0,0,0,102.84,119.05Z" transform="translate(-32.18 -20.63)"/><path class="cls-2" d="M68.15,128.45c.55-1,1.11-2,1.64-3s1.21-2,1.78-3c1.14-2,2.21-4,3.15-6.1.48-1,.91-2.1,1.3-3.17a29.2,29.2,0,0,0,1-3.26,19,19,0,0,0,.54-3.35,9.71,9.71,0,0,0-.09-3.4,9,9,0,0,1,.66,3.43,18.47,18.47,0,0,1-.55,3.46,30.24,30.24,0,0,1-1,3.32q-.6,1.63-1.32,3.21c-1,2.1-2,4.15-3.18,6.15-.57,1-1.17,2-1.78,3S68.9,127.58,68.15,128.45Z" transform="translate(-32.18 -20.63)"/><path class="cls-2" d="M50.42,79.44a18.48,18.48,0,0,0,1,1.6,14.62,14.62,0,0,0,1,1.57,12.57,12.57,0,0,0,2.53,2.67,6.46,6.46,0,0,0,.75.54,5.64,5.64,0,0,0,.77.5l.81.45.84.37.43.18a3.66,3.66,0,0,0,.43.15l.89.29.21.1.22.08.44.16c.29.11.59.22.89.35-.32,0-.64,0-1,0l-.48,0-.24,0-.24,0L58.74,88a3.39,3.39,0,0,1-.45-.15l-.44-.19c-.29-.13-.59-.25-.88-.39l-.84-.49a4.86,4.86,0,0,1-.81-.52,7.06,7.06,0,0,1-.78-.57,13.19,13.19,0,0,1-2.64-2.79c-.19-.25-.35-.53-.53-.8a8.44,8.44,0,0,1-.47-.83A8.54,8.54,0,0,1,50.42,79.44Z" transform="translate(-32.18 -20.63)"/><path class="cls-2" d="M35.64,99.32c1.13.36,2.27.68,3.42,1s2.25.68,3.4.94a32.71,32.71,0,0,0,7,.9,20.68,20.68,0,0,0,6.9-1,16,16,0,0,0,3.14-1.52,15.85,15.85,0,0,0,2.86-2,14.2,14.2,0,0,1-2.55,2.53,16.58,16.58,0,0,1-3.26,1.57,20.86,20.86,0,0,1-7.1,1,33.16,33.16,0,0,1-7.09-.89c-1.16-.27-2.31-.58-3.46-1A28.84,28.84,0,0,1,35.64,99.32Z" transform="translate(-32.18 -20.63)"/></svg>